<svg id="VISA_Logo" data-name="VISA Logo" xmlns="http://www.w3.org/2000/svg" viewBox="0 0 216 69.76"><defs><style>.cls-1{fill:#fff;}</style></defs><title>payment-visa-white</title><path class="cls-1" d="M579.19,320.72l-28.28,67.47H532.46l-13.92-53.85c-.84-3.32-1.58-4.53-4.15-5.93-4.19-2.27-11.12-4.41-17.21-5.73l.41-2h29.7a8.13,8.13,0,0,1,8.05,6.87l7.35,39.05,18.16-45.92Zm72.29,45.44c.08-17.81-24.62-18.79-24.45-26.75.05-2.42,2.36-5,7.4-5.65a32.88,32.88,0,0,1,17.21,3l3.06-14.31a47,47,0,0,0-16.32-3c-17.25,0-29.4,9.17-29.5,22.31-.11,9.71,8.67,15.13,15.28,18.36,6.8,3.31,9.09,5.42,9.06,8.38-.05,4.53-5.43,6.53-10.45,6.6-8.77.14-13.87-2.36-17.93-4.26l-3.16,14.79c4.08,1.87,11.61,3.5,19.41,3.58,18.34,0,30.33-9.06,30.39-23.08m45.55,22h16.15l-14.09-67.47h-14.9a7.93,7.93,0,0,0-7.43,4.95l-26.19,62.52H668.9l3.64-10.08h22.39Zm-19.47-23.91L686.75,339,692,364.28Zm-73.43-43.56-14.44,67.47H572.24l14.44-67.47Z" transform="translate(-497.18 -319.48)"/></svg>