<svg width="46" height="25" viewBox="0 0 46 25" fill="none" xmlns="http://www.w3.org/2000/svg">
<path d="M40.7116 0H4.32447C1.93613 0 0 1.9321 0 4.31546V20.6525C0 23.0358 1.93613 24.9679 4.32447 24.9679H40.7116C43.1 24.9679 45.0361 23.0358 45.0361 20.6525V4.31546C45.0361 1.9321 43.1 0 40.7116 0Z" fill="#FFB3C7"/>
<path d="M40.8263 14.6275C40.2371 14.6275 39.7595 15.1085 39.7595 15.7019C39.7595 16.2951 40.2371 16.7762 40.8263 16.7762C41.4155 16.7762 41.8933 16.2951 41.8933 15.7019C41.8933 15.1085 41.4156 14.6275 40.8263 14.6275ZM37.3162 13.7969C37.3162 12.9846 36.6267 12.3262 35.7761 12.3262C34.9255 12.3262 34.2358 12.9846 34.2358 13.7969C34.2358 14.6093 34.9254 15.2678 35.7761 15.2678C36.6268 15.2678 37.3162 14.6093 37.3162 13.7969ZM37.3219 10.9384H39.0217V16.6553H37.3219V16.2899C36.8417 16.6197 36.2621 16.8135 35.6369 16.8135C33.9825 16.8135 32.6412 15.463 32.6412 13.7969C32.6412 12.1308 33.9825 10.7804 35.6369 10.7804C36.2621 10.7804 36.8417 10.9742 37.3219 11.3041V10.9384V10.9384ZM23.719 11.6831V10.9385H21.9787V16.6552H23.7229V13.9862C23.7229 13.0857 24.6922 12.6017 25.3647 12.6017C25.3716 12.6017 25.3781 12.6023 25.3849 12.6024V10.9389C24.6947 10.9389 24.0598 11.2366 23.719 11.6832L23.719 11.6831ZM19.384 13.797C19.384 12.9846 18.6944 12.3262 17.8437 12.3262C16.9931 12.3262 16.3035 12.9847 16.3035 13.797C16.3035 14.6093 16.9931 15.2679 17.8437 15.2679C18.6944 15.2679 19.384 14.6093 19.384 13.797ZM19.3896 10.9384H21.0894V16.6553H19.3896V16.2899C18.9094 16.6197 18.3297 16.8136 17.7046 16.8136C16.0501 16.8136 14.7088 15.463 14.7088 13.7969C14.7088 12.1309 16.0501 10.7804 17.7046 10.7804C18.3298 10.7804 18.9094 10.9743 19.3896 11.3041V10.9384V10.9384ZM29.6208 10.7847C28.9418 10.7847 28.2991 10.9969 27.8695 11.5826V10.9388H26.177V16.6553H27.8903V13.6511C27.8903 12.7817 28.4692 12.356 29.1663 12.356C29.9134 12.356 30.3429 12.8054 30.3429 13.6393V16.6553H32.0406V13.0199C32.0406 11.6895 30.9902 10.7848 29.6208 10.7848V10.7847ZM12.2328 16.6553H14.012V8.39084H12.2328V16.6553ZM4.41748 16.6576H6.30139V8.3893H4.41748V16.6576ZM11.0068 8.3893C11.0068 10.1793 10.314 11.8445 9.07962 13.0822L11.6837 16.6579H9.35684L6.52677 12.7719L7.25717 12.2211C8.46844 11.3074 9.16319 9.91083 9.16319 8.38928H11.0068L11.0068 8.3893Z" fill="#0A0B09"/>
</svg>
